<svg width="64" height="64" viewBox="0 0 64 64" fill="none" xmlns="http://www.w3.org/2000/svg">
<path fill-rule="evenodd" clip-rule="evenodd" d="M45.2526 18.5858C46.0337 17.8047 47.2998 17.8047 48.0809 18.5858L46.6668 20C48.0809 18.5858 48.0804 18.5852 48.0809 18.5858L48.0836 18.5883L48.0862 18.5911L48.0932 18.598L48.111 18.6163L48.1636 18.6711C48.2057 18.7155 48.262 18.776 48.33 18.8522C48.466 19.0045 48.6505 19.2202 48.8668 19.4966C49.2988 20.0484 49.8622 20.8483 50.4225 21.8756C51.543 23.9297 52.6668 26.9243 52.6668 30.6667C52.6668 34.4091 51.543 37.4037 50.4225 39.4576C49.8622 40.4851 49.2988 41.2848 48.8668 41.8368C48.6505 42.1131 48.466 42.3288 48.33 42.4811C48.262 42.5573 48.2057 42.6179 48.1636 42.6624L48.111 42.7171L48.0932 42.7352L48.0862 42.7421L48.0836 42.7451C48.083 42.7456 48.0809 42.7475 46.722 41.3885L48.0809 42.7475C47.2998 43.5285 46.0337 43.5285 45.2526 42.7475C44.4737 41.9688 44.4716 40.7077 45.2457 39.9261C45.2478 39.9237 45.2502 39.9213 45.2526 39.9192L46.6668 41.3333C45.2526 39.9192 45.2532 39.9187 45.2526 39.9192L45.2505 39.9213L45.2457 39.9261L45.2598 39.9112C45.2764 39.8939 45.306 39.8619 45.3473 39.8157C45.43 39.7232 45.558 39.5744 45.7166 39.3715C46.0348 38.9651 46.4713 38.3483 46.911 37.5424C47.7905 35.9296 48.6668 33.5909 48.6668 30.6667C48.6668 27.7424 47.7905 25.4036 46.911 23.791C46.4713 22.9851 46.0348 22.3682 45.7166 21.9618C45.558 21.759 45.43 21.61 45.3473 21.5175C45.306 21.4714 45.2764 21.4394 45.2598 21.422L45.2457 21.4073C44.4716 20.6257 44.4737 19.3645 45.2526 18.5858Z" fill="white"/>
<path fill-rule="evenodd" clip-rule="evenodd" d="M53.2526 10.5858C54.0337 9.80474 55.2998 9.80474 56.0809 10.5858L54.6667 12C56.0809 10.5858 56.0803 10.5851 56.0809 10.5858L56.0838 10.5886L56.0873 10.592L56.0958 10.6007L56.1201 10.6256C56.1395 10.6456 56.1652 10.6722 56.1964 10.7054C56.259 10.7717 56.3446 10.8645 56.4502 10.9835C56.6609 11.2214 56.951 11.5643 57.2937 12.0097C57.9785 12.9 58.8763 14.2041 59.7699 15.9018C61.5587 19.3006 63.3334 24.285 63.3334 30.6667C63.3334 37.0483 61.5587 42.0328 59.7699 45.4315C58.8763 47.1293 57.9785 48.4333 57.2937 49.3235C56.951 49.7691 56.6609 50.112 56.4502 50.3499C56.3446 50.4688 56.259 50.5616 56.1964 50.628C56.1652 50.6611 56.1395 50.6877 56.1201 50.7077L56.0958 50.7325L56.0873 50.7413L56.0838 50.7448C56.0833 50.7456 56.0809 50.7475 54.6667 49.3333L56.0809 50.7475C55.2998 51.5285 54.0337 51.5285 53.2526 50.7475C52.4723 49.9675 52.4715 48.7029 53.2499 47.9216C53.2497 47.9219 53.2502 47.9216 53.2499 47.9216L53.2475 47.9243C53.2478 47.9237 53.2475 47.924 53.2499 47.9216L53.2867 47.8832C53.3219 47.8459 53.3795 47.7837 53.4563 47.6971C53.6102 47.5235 53.8409 47.2517 54.1233 46.8848C54.6883 46.1499 55.4571 45.0373 56.2302 43.5685C57.7747 40.6339 59.3334 36.2851 59.3334 30.6667C59.3334 25.0483 57.7747 20.6994 56.2302 17.7648C55.4571 16.2959 54.6883 15.1834 54.1233 14.4486C53.8409 14.0815 53.6102 13.8098 53.4563 13.6363C53.3795 13.5495 53.3219 13.4874 53.2867 13.4502L53.2515 13.4133C53.2489 13.4106 53.2475 13.4092 53.2473 13.409L53.2515 13.4133C52.4718 12.6322 52.4718 11.3664 53.2526 10.5858Z" fill="white"/>
<path fill-rule="evenodd" clip-rule="evenodd" d="M32.0978 9.05711C35.2005 7.01133 39.3333 9.23666 39.3333 12.9531V51.0483C39.3333 54.7649 35.2005 56.9902 32.0978 54.9443L16.1003 44.3966C15.9913 44.3248 15.8637 44.2864 15.7333 44.2864H7.99996C3.94988 44.2864 0.666626 41.0032 0.666626 36.9531V27.0483C0.666626 22.9983 3.94988 19.7151 7.99996 19.7151H15.7333C15.8637 19.7151 15.9913 19.6768 16.1003 19.605L32.0978 9.05711Z" fill="white"/>
</svg>
