<svg width="64" height="64" viewBox="0 0 64 64" fill="none" xmlns="http://www.w3.org/2000/svg">
<g clip-path="url(#clip0_70_453)">
<mask id="mask0_70_453" style="mask-type:luminance" maskUnits="userSpaceOnUse" x="0" y="0" width="64" height="64">
<path d="M64 0H0V64H64V0Z" fill="white"/>
</mask>
<g mask="url(#mask0_70_453)">
<path fill-rule="evenodd" clip-rule="evenodd" d="M46.5857 25.2527C47.3667 24.4716 48.6329 24.4714 49.4142 25.2524L53.3342 29.1715L57.2523 25.2527C58.0334 24.4716 59.2995 24.4714 60.0809 25.2524C60.8619 26.0333 60.8619 27.2996 60.0811 28.0809L56.1627 32.0001L60.0811 35.9193C60.8619 36.7006 60.8619 37.9668 60.0809 38.7478C59.2995 39.5289 58.0334 39.5286 57.2523 38.7476L53.3342 34.8286L49.4142 38.7478C48.6329 39.5289 47.3667 39.5286 46.5857 38.7476C45.8046 37.9662 45.8049 36.7001 46.5859 35.919L50.5059 32.0001L46.5859 28.0812C45.8049 27.3001 45.8046 26.0338 46.5857 25.2527Z" fill="white"/>
<path fill-rule="evenodd" clip-rule="evenodd" d="M34.7646 9.05711C37.8672 7.01133 42 9.23666 42 12.9531V51.0483C42 54.7649 37.8672 56.9902 34.7646 54.9443L18.767 44.3966C18.6581 44.3248 18.5305 44.2864 18.4 44.2864H10.6667C6.61663 44.2864 3.33337 41.0032 3.33337 36.9531V27.0483C3.33337 22.9983 6.61663 19.7151 10.6667 19.7151H18.4C18.5305 19.7151 18.6581 19.6768 18.767 19.605L34.7646 9.05711Z" fill="white"/>
</g>
</g>
<defs>
<clipPath id="clip0_70_453">
<rect width="64" height="64" fill="white"/>
</clipPath>
</defs>
</svg>
